<svg width="32" height="32" viewBox="0 0 32 32" fill="none" xmlns="http://www.w3.org/2000/svg">
  <path d="M16 32C24.8366 32 32 24.8366 32 16C32 7.16344 24.8366 0 16 0C7.16344 0 0 7.16344 0 16C0 24.8366 7.16344 32 16 32Z" fill="#FF875B"/>
  <path d="M15.9746 6.4043C15.6143 6.40332 15.2917 6.58752 15.1216 6.89648L7.10156 21.7041C6.76367 22.3213 7.20215 23.0654 7.89844 23.0654H24.1016C24.7979 23.0654 25.2363 22.3213 24.8984 21.7041L16.8779 6.89648C16.7078 6.58752 16.3857 6.40332 16.0254 6.4043H15.9746Z" fill="white"/>
</svg> 